# xmcd CD database file
#
# Track frame offsets:
#	150
#	4437
#	22714
#	29366
#	35230
#	46934
#	53590
#	58635
#	71188
#	76104
#	85919
#	92552
#	98269
#	104173
#	112373
#	123029
#	133778
#	142409
#	155515
#	175885
#	195774
#	209548
#	221882
#	235691
#
# Disc length: 3251 seconds
#
# Revision: 0
# Processed by: cddbd v1.5.2PL0 Copyright (c) Steve Scherf et al.
# Submitted via: CDex 1.70beta2
#
DISCID=510cb118
DTITLE=David Tennant - PETER and THE WOLF
DYEAR=2015
DGENRE=Jazz
TTITLE0=David Tennant - 01Overture
TTITLE1=David Tennant - 02Introduction to the Characters
TTITLE2=David Tennant - 03Early one morning
TTITLE3=David Tennant - 04On the branch
TTITLE4=David Tennant - 05Just then, a duck
TTITLE5=David Tennant - 06Suddenly, something
TTITLE6=David Tennant - 07Look out!
TTITLE7=David Tennant - 08Grandfather came out
TTITLE8=David Tennant - 09No sooner had Peter gone
TTITLE9=David Tennant - 10In a twinkling 
TTITLE10=David Tennant - 11And now, this is how 
TTITLE11=David Tennant - 12In the meantime
TTITLE12=David Tennant - 13Peter said to the Bird
TTITLE13=David Tennant - 14Meanwhile Peter made a lasso
TTITLE14=David Tennant - 15Just then, hunters
TTITLE15=David Tennant - 16Imagine the triumphal procession
TTITLE16=David Tennant - 17Above them flew the bird
TTITLE17=The Amazing Keystone Big Band - 18Bird's Tweets
TTITLE18=The Amazing Keystone Big Band - 19Soulful Cat
TTITLE19=The Amazing Keystone Big Band - 20Elegy for a duck
TTITLE20=The Amazing Keystone Big Band - 21Hunter's Blues
TTITLE21=The Amazing Keystone Big Band - 22Beware of the Wolf
TTITLE22=The Amazing Keystone Big Band - 23Grandpa's Shuffle
TTITLE23=The Amazing Keystone Big Band - 24Peter's March
EXTD=YEAR: 2015
EXTT0=
EXTT1=
EXTT2=
EXTT3=
EXTT4=
EXTT5=
EXTT6=
EXTT7=
EXTT8=
EXTT9=
EXTT10=
EXTT11=
EXTT12=
EXTT13=
EXTT14=
EXTT15=
EXTT16=
EXTT17=
EXTT18=
EXTT19=
EXTT20=
EXTT21=
EXTT22=
EXTT23=
PLAYORDER=
